PathFileType	3	(X/Y/Z)	RCH0000002 BBF 14.c3d
DataRate	CameraRate	NumFrames	NumMarkers	Units	OrigDataRate	OrigDataStartFrame	OrigNumFrames
100.0	100.0	12	23	mm	100.0	397	502
Frame#	Time	RASI			LPAT			LKNE			LANK			LMED			LHEE			RPAT			RKNE			RANK			RMED			RHEE			RTOE			LTOE			MAN			LASI			T2			T10			LPSI			RPSI			RTHI			LTHI			RTIB			LTIB			
		X1	Y1	Z1	X2	Y2	Z2	X3	Y3	Z3	X4	Y4	Z4	X5	Y5	Z5	X6	Y6	Z6	X7	Y7	Z7	X8	Y8	Z8	X9	Y9	Z9	X10	Y10	Z10	X11	Y11	Z11	X12	Y12	Z12	X13	Y13	Z13	X14	Y14	Z14	X15	Y15	Z15	X16	Y16	Z16	X17	Y17	Z17	X18	Y18	Z18	X19	Y19	Z19	X20	Y20	Z20	X21	Y21	Z21	X22	Y22	Z22	X23	Y23	Z23	

397	3.960	837.32884	-144.09209	647.17550	739.70620	-25.57924	370.63167	685.56994	29.99576	341.96129	582.36132	14.59548	81.78647	590.92011	-52.11914	105.18840	550.76924	-22.07171	123.78404	954.15964	-63.73400	425.62111	930.54964	-120.19557	374.87235	896.39092	-150.24733	111.61377	872.99785	-84.61293	115.96460	845.40079	-127.31169	140.34526	932.67444	-107.69891	97.97528	631.73205	-21.32803	71.20540	851.30687	-34.75251	944.18316	791.27820	25.82019	651.84958	720.36095	-46.06081	982.29748	720.89353	-76.75567	794.65870	697.97826	-57.38763	697.86792	714.24519	-125.29862	692.79155	904.59320	-200.75394	475.77408	709.55145	102.46536	463.15195	928.46926	-198.01378	271.32183	634.75493	88.31155	228.67876	
398	3.970	848.85517	-141.57986	644.90115	748.35037	-23.61360	368.47279	693.27085	31.32560	340.61569	584.07566	15.36308	82.99002	593.13158	-51.17603	106.36966	553.54070	-21.07657	125.88379	962.97701	-56.98259	422.32542	941.31808	-114.34771	371.50456	913.24455	-144.82501	107.00701	887.89128	-79.82614	111.30417	860.93709	-123.42094	134.87280	948.60177	-101.28856	94.43171	633.04265	-20.64095	71.26811	861.21624	-35.41288	942.44758	801.05865	27.80920	650.59963	730.28309	-47.19574	980.49991	730.90699	-76.64782	792.64041	708.35891	-56.74055	695.39842	725.33618	-124.48471	689.92167	917.27856	-195.26217	472.49712	717.69586	104.04934	461.58138	943.48380	-192.03468	267.33556	639.87360	89.42664	228.34513	
399	3.980	860.63560	-138.99778	642.65463	758.04401	-21.68004	365.95280	701.97878	32.51027	338.86017	586.23039	16.05609	84.38582	595.81719	-50.32449	107.64653	556.93512	-20.15607	128.21913	971.37931	-50.52034	418.29158	951.40191	-108.82467	367.59729	927.77653	-139.85154	102.24703	900.66430	-75.43596	106.56464	874.39642	-119.83355	129.45128	962.25475	-95.44106	90.68771	634.65801	-20.05471	71.33452	871.23061	-36.06194	940.74545	811.12353	29.86618	649.01875	740.26365	-48.44509	978.54036	741.24918	-76.34796	790.46029	719.03189	-55.88138	692.81117	736.71701	-123.46834	687.15460	929.72414	-189.91467	468.88210	726.43262	105.52087	459.64927	957.02515	-186.36117	263.00896	645.85571	90.41298	227.87954	
400	3.990	872.60632	-136.39028	640.50748	768.81348	-19.80115	363.05566	711.73144	33.54189	336.67064	588.93962	16.67665	85.97754	599.06714	-49.56508	109.02005	561.06559	-19.30117	130.78478	979.44476	-44.49233	413.73056	960.85536	-103.74420	363.32877	939.92801	-135.47611	97.49350	911.29701	-71.56870	101.91115	885.73540	-116.66103	124.25661	973.60949	-90.31676	86.89440	636.66099	-19.57801	71.40875	881.32959	-36.67269	939.09946	821.45451	31.95918	647.10043	750.28313	-49.76658	976.44275	751.89350	-75.81065	788.15007	729.95155	-54.79290	690.14830	748.32348	-122.23753	684.56783	941.88153	-184.84114	465.06464	735.78870	106.85210	457.34467	969.06486	-181.13629	258.50287	652.79321	91.26725	227.26004	
401	4.000	884.68968	-133.81460	638.53953	780.64690	-18.00456	359.79614	722.53571	34.41695	334.05342	592.32927	17.23524	87.76357	602.97715	-48.89119	110.49073	566.04446	-18.49430	133.56563	987.23868	-39.04642	408.88682	969.73263	-99.22102	358.90607	949.73904	-131.82376	92.92421	919.84818	-68.33594	97.52428	894.99851	-114.00891	119.47426	982.72561	-86.04165	83.21299	639.14905	-19.21087	71.50083	891.48865	-37.21709	937.53808	832.02942	34.04546	644.86011	760.32025	-51.11027	974.24398	762.80029	-74.99763	785.75666	741.06325	-53.46689	687.46556	760.07862	-120.78924	682.24272	953.69190	-180.17798	461.20177	745.78096	108.01743	454.68285	979.62892	-176.49843	253.99645	660.76216	91.99238	226.47754	
402	4.010	896.79896	-131.33731	636.83463	793.49339	-16.32187	356.22591	734.36653	35.13666	331.05068	596.53090	17.75232	89.73701	607.64492	-48.28734	112.05857	571.97597	-17.70929	136.53683	994.80766	-34.32889	404.01647	978.08037	-95.36435	354.54705	957.35103	-128.98157	88.71321	926.45715	-65.82260	93.57954	902.31887	-111.96495	115.27648	989.74793	-82.69459	79.79643	642.23313	-18.94133	71.62781	901.67937	-37.66737	936.09638	842.82298	36.07407	642.33798	770.35193	-52.42043	971.99414	773.91860	-73.88108	783.34151	752.30730	-51.90615	684.83172	771.89794	-119.13099	680.26079	965.08865	-176.06192	457.46072	756.41436	108.99617	451.70988	988.79440	-172.57274	249.66748	669.81731	92.59821	225.54109	
403	4.020	908.84410	-129.02978	635.47521	807.26566	-14.78701	352.43643	747.16790	35.70694	327.74285	601.67279	18.25845	91.88646	613.16564	-47.72882	113.72257	578.94765	-16.91360	139.66460	1002.17603	-30.47763	399.36271	985.93100	-92.27449	350.46004	962.99696	-126.98947	85.00870	931.33636	-64.07737	90.22664	907.90812	-110.58876	111.79981	994.89861	-80.29996	76.77235	646.03463	-18.74291	71.81424	911.87001	-37.99732	934.81621	853.80770	37.98925	639.59982	780.35348	-53.63798	969.75533	785.18896	-72.44673	780.97841	763.62347	-50.12590	682.32684	783.69551	-117.28182	678.69940	976.00075	-172.62195	454.00508	767.68051	109.77480	448.50472	996.67989	-169.46295	245.67252	679.98613	93.10137	224.48263	
404	4.030	920.73763	-126.96299	634.53623	821.84566	-13.43383	348.55740	760.85598	36.13824	324.24726	607.86914	18.79264	94.19735	619.62709	-47.18270	115.48007	587.02179	-16.07257	142.90802	1009.34499	-27.61282	395.13246	993.29809	-90.03808	346.82434	966.97949	-125.83699	81.91495	934.75459	-63.10733	87.57214	912.03570	-109.90463	109.12735	998.45994	-78.82697	74.23024	650.68069	-18.57335	72.09186	922.02642	-38.18380	933.74525	864.95484	39.73449	636.73570	790.29892	-54.70352	967.59925	796.54698	-70.69625	778.74986	774.95536	-48.15437	680.03912	795.39014	-115.27264	677.62707	986.35620	-169.97017	450.97973	779.55709	110.34882	445.17823	1003.43053	-167.24404	242.13055	691.26313	93.52422	223.36023	
405	4.040	932.40025	-125.20226	634.07930	837.09318	-12.29313	344.75054	775.32418	36.44506	320.71275	615.20912	19.39890	96.65381	627.10485	-46.61036	117.32584	596.22843	-15.15527	146.22151	1016.29433	-25.82585	391.47787	1000.17461	-88.72180	343.77464	969.64002	-125.46620	79.48178	937.01290	-62.87706	85.66863	915.00071	-109.89806	107.27931	1000.74957	-78.19564	72.21495	656.29796	-18.37510	72.49832	932.11331	-38.20814	932.93522	876.23544	41.25676	633.85619	800.16170	-55.56066	965.60356	807.92727	-68.64877	776.74234	786.25416	-46.03214	678.06050	806.91094	-113.14546	677.09902	996.08569	-168.19244	448.49733	792.00813	110.72353	441.86872	1009.19990	-165.95652	239.11304	703.60565	93.89299	222.25916	
406	4.050	943.76533	-123.80243	634.14765	852.85645	-11.38929	341.19877	790.44998	36.64536	317.31044	623.74773	20.12155	99.24064	635.65832	-45.97132	119.25109	606.56160	-14.14075	149.55771	1022.98591	-25.16800	388.48615	1006.53460	-88.36483	341.39193	971.32403	-125.77972	77.70328	938.41728	-63.31218	84.51198	917.10129	-110.51619	106.21365	1002.09225	-78.28762	70.72698	663.00548	-18.07807	73.07485	942.09586	-38.05734	932.43907	887.62120	42.51053	631.08635	809.91568	-56.15952	963.84747	819.26735	-66.34094	775.04086	797.48134	-43.81024	676.48134	818.20153	-110.95146	677.15328	1005.12644	-167.34000	446.62856	804.98558	110.91396	438.73410	1014.13168	-165.60260	236.64223	716.93250	94.23562	221.28982	
407	4.060	954.78206	-122.80399	634.76270	868.98358	-10.73687	338.09211	806.10301	36.75983	314.22136	633.50045	20.99995	101.94477	645.32785	-45.22768	121.24261	617.97993	-13.02333	152.87015	1029.36838	-25.64076	386.17939	1012.33813	-88.97128	339.70215	972.34904	-126.65159	76.52551	939.25274	-64.30605	84.04678	918.60708	-111.67134	105.83630	1002.79279	-78.95969	69.72889	670.90736	-17.60456	73.86298	951.94149	-37.72516	932.30744	899.08522	43.46122	628.55782	819.53638	-56.45997	962.40687	830.51107	-63.82557	773.72330	808.60984	-41.54680	675.38436	829.22255	-108.74781	677.80776	1013.42638	-167.42310	445.39781	818.43216	110.94373	435.94105	1018.34478	-166.14467	234.69715	731.12665	94.57944	220.58170	
408	4.070	965.41682	-122.23034	635.92252	885.33358	-10.33786	335.61182	822.15378	36.81114	311.62226	644.44293	22.06359	104.75573	656.13334	-44.34841	123.28230	630.41192	-11.81551	156.11553	1035.38225	-27.19010	384.52372	1017.53886	-90.50398	338.68212	972.98030	-127.93917	75.86091	939.76313	-65.72864	84.17837	919.73926	-113.24729	106.01840	1003.11439	-80.05755	69.15591	680.08599	-16.87609	74.90063	961.62176	-37.21265	932.58462	910.60241	44.08777	626.39959	829.00246	-56.43445	961.34942	841.61114	-61.16859	772.85510	819.62375	-39.30265	674.83860	839.95219	-106.59334	679.05878	1020.94862	-168.40770	444.78494	832.28522	110.84331	433.65237	1021.92452	-167.50636	233.22555	746.04269	94.94916	220.27340	
